<?xml version="1.0" encoding="UTF-8" standalone="no"?>
<!-- Created with Inkscape (http://www.inkscape.org/) -->

<svg
   xmlns:dc="http://purl.org/dc/elements/1.1/"
   xmlns:cc="http://creativecommons.org/ns#"
   xmlns:rdf="http://www.w3.org/1999/02/22-rdf-syntax-ns#"
   xmlns:svg="http://www.w3.org/2000/svg"
   xmlns="http://www.w3.org/2000/svg"
   xmlns:sodipodi="http://sodipodi.sourceforge.net/DTD/sodipodi-0.dtd"
   xmlns:inkscape="http://www.inkscape.org/namespaces/inkscape"
   width="39.6875mm"
   height="39.704136mm"
   viewBox="0 0 39.6875 39.704136"
   version="1.1"
   id="svg8"
   inkscape:version="0.92.4 (5da689c313, 2019-01-14)"
   sodipodi:docname="avatar.svg">
  <defs
     id="defs2" />
  <sodipodi:namedview
     id="base"
     pagecolor="#ffffff"
     bordercolor="#666666"
     borderopacity="1.0"
     inkscape:pageopacity="0.0"
     inkscape:pageshadow="2"
     inkscape:zoom="1.4"
     inkscape:cx="-82.614078"
     inkscape:cy="137.43925"
     inkscape:document-units="mm"
     inkscape:current-layer="layer1"
     showgrid="false"
     inkscape:snap-smooth-nodes="true"
     inkscape:window-width="1920"
     inkscape:window-height="1001"
     inkscape:window-x="2391"
     inkscape:window-y="-9"
     inkscape:window-maximized="1"
     fit-margin-top="0"
     fit-margin-left="0"
     fit-margin-right="0"
     fit-margin-bottom="0" />
  <metadata
     id="metadata5">
    <rdf:RDF>
      <cc:Work
         rdf:about="">
        <dc:format>image/svg+xml</dc:format>
        <dc:type
           rdf:resource="http://purl.org/dc/dcmitype/StillImage" />
        <dc:title></dc:title>
      </cc:Work>
    </rdf:RDF>
  </metadata>
  <g
     inkscape:label="Layer 1"
     inkscape:groupmode="layer"
     id="layer1"
     transform="translate(-85.322601,-105.28986)">
    <rect
       style="opacity:1;fill:#787878;fill-opacity:1;stroke:none;stroke-width:0.92604166;stroke-linecap:round;stroke-miterlimit:4;stroke-dasharray:none;stroke-dashoffset:0;stroke-opacity:1"
       id="rect4576"
       width="39.6875"
       height="39.6875"
       x="85.322601"
       y="105.28986" />
    <path
       style="fill:#323232;fill-opacity:1;stroke:#323232;stroke-width:0.26458332px;stroke-linecap:butt;stroke-linejoin:miter;stroke-opacity:1"
       d="m 120.39501,123.86131 c 1.09457,6.91386 0.11279,20.99961 0.11279,20.99961 l -9.13726,-0.0583 4.05515,-29.36373 c 0,0 2.55051,2.0635 3.38082,3.44034 0.90015,1.49265 1.31594,3.26046 1.5885,4.98208 z"
       id="path4539"
       inkscape:connector-curvature="0"
       sodipodi:nodetypes="acccaa" />
    <path
       style="fill:#bbb9b1;fill-opacity:1;stroke:#bbb9b1;stroke-width:0.26458332px;stroke-linecap:butt;stroke-linejoin:miter;stroke-opacity:1"
       d="m 96.232156,126.36483 c 0,0 -3.736824,0.4235 -4.29948,1.84263 -0.550549,1.38859 0.982023,3.28646 1.984373,4.39397 1.326702,1.46589 3.232817,2.19398 5.055437,2.83482 1.807484,0.63552 3.791004,0.87673 5.669644,0.94495 2.39971,0.0871 4.78305,-0.26834 7.08705,-0.94494 1.40621,-0.41295 3.15521,-1.43986 4.11049,-2.55134 0.98054,-1.14087 1.35181,-2.25877 1.65365,-3.73252 0.30395,-1.48405 0.12915,-3.08471 -0.0945,-4.58296 -0.23839,-1.59702 -0.84418,-3.16702 -1.7009,-4.53572 -0.92202,-1.47306 -1.64736,-2.27265 -3.16554,-3.11831 -1.34919,-0.75151 -3.35165,-1.18772 -5.10268,-1.27567 -1.6372,-0.0822 -4.48847,0.61421 -4.86645,0.70871 -0.37797,0.0945 -3.541104,1.50354 -4.724704,2.92932 -1.05734,1.27368 -1.55363,2.99258 -1.79539,4.63021 -0.11995,0.81256 0.18899,2.45685 0.18899,2.45685 z"
       id="path4529"
       inkscape:connector-curvature="0"
       sodipodi:nodetypes="cssasssssssassscc" />
    <path
       style="fill:#323232;fill-opacity:1;stroke:#323232;stroke-width:0.26458332px;stroke-linecap:butt;stroke-linejoin:miter;stroke-opacity:1"
       d="m 105.0885,110.47002 4.60538,7.63088 5.62299,-2.12109 c 0,0 -3.07867,-1.08219 -4.01269,-2.29638 -2.23092,-2.90012 -6.21568,-3.21341 -6.21568,-3.21341 z"
       id="path4531-0"
       inkscape:connector-curvature="0"
       sodipodi:nodetypes="cccsc" />
    <path
       style="fill:#bbb9b1;fill-opacity:1;stroke:#bbb9b1;stroke-width:0.26458332px;stroke-linecap:butt;stroke-linejoin:miter;stroke-opacity:1"
       d="m 116.08812,111.31182 c -1.08298,0.32791 -3.19192,2.90622 -4.23405,4.75372 -1.097,1.94476 -1.97498,6.39862 -1.97498,6.39862 l 7.30122,2.04032 c 0,0 1.46782,-4.20024 1.50166,-6.38673 0.0378,-2.44132 -0.25883,-5.1144 -1.5851,-6.39042 -0.26189,-0.25197 -0.66066,-0.52091 -1.00875,-0.41551 z"
       id="path4533"
       inkscape:connector-curvature="0"
       sodipodi:nodetypes="saccsss" />
    <path
       style="fill:#323232;fill-opacity:1;stroke:#323232;stroke-width:0.26458332px;stroke-linecap:butt;stroke-linejoin:miter;stroke-opacity:1"
       d="m 100.46614,110.15396 c -0.741516,0.11115 -1.543753,0.23265 -2.25123,0.54106 -0.894753,0.39005 -1.770902,0.90875 -2.439154,1.6202 -1.021274,1.0873 -1.826711,2.7561 -2.238053,3.87531 -0.27408,0.74573 -0.06766,1.64499 -0.03364,2.43877 0.04171,0.97326 0.119986,1.99157 0.534334,2.87321 0.443939,0.9446 1.172358,1.77558 2.00453,2.40554 0.54452,0.4122 1.8712,0.83509 1.8712,0.83509 0,0 -0.7451,-1.37963 -1.07804,-2.22445 -0.28193,-0.71536 -0.33465,-1.66059 -0.33465,-1.66059 0,0 1.54249,0.65589 2.64879,1.11208 1.098903,0.45313 2.268763,0.73925 3.441143,0.93534 1.33192,0.22277 2.6926,0.31704 4.04212,0.26769 1.54977,-0.0567 3.09406,-0.30696 4.60747,-0.64544 1.31998,-0.29521 3.87574,-1.20251 3.87574,-1.20251 0,0 -2.0907,-1.22554 -2.93987,-2.07171 -0.51166,-0.50985 -1.25471,-1.76682 -1.25471,-1.76682 l -0.74713,-1.2219 c -0.91213,-2.35687 -0.67556,-0.37822 -2.56909,-2.29488 -1.71657,-1.97118 -2.5174,-3.49993 -2.5174,-3.49993 0,0 -2.92569,-0.56867 -4.62236,-0.31638 -1.1e-4,2e-5 0,3.2e-4 0,3.2e-4 z"
       id="path4531"
       inkscape:connector-curvature="0"
       sodipodi:nodetypes="caasccccccccccccccccsc" />
  </g>
</svg>
