<?xml version="1.0" encoding="UTF-8" standalone="no"?>
<svg
   version="1.1"
   id="Layer_1"
   x="0px"
   y="0px"
   width="182.87889"
   height="179.79912"
   viewBox="0 0 182.87889 179.79911"
   enable-background="new 0 0 122.879 119.799"
   xml:space="preserve"
   sodipodi:docname="search-icon.svg"
   inkscape:version="1.1.2 (b8e25be833, 2022-02-05)"
   xmlns:inkscape="http://www.inkscape.org/namespaces/inkscape"
   xmlns:sodipodi="http://sodipodi.sourceforge.net/DTD/sodipodi-0.dtd"
   xmlns="http://www.w3.org/2000/svg"
   xmlns:svg="http://www.w3.org/2000/svg"><defs
     id="defs840" /><sodipodi:namedview
     id="namedview838"
     pagecolor="#ffffff"
     bordercolor="#666666"
     borderopacity="1.0"
     inkscape:pageshadow="2"
     inkscape:pageopacity="0.0"
     inkscape:pagecheckerboard="0"
     showgrid="false"
     fit-margin-top="30"
     fit-margin-left="30"
     fit-margin-right="30"
     fit-margin-bottom="30"
     inkscape:zoom="0.5"
     inkscape:cx="81"
     inkscape:cy="89"
     inkscape:window-width="1920"
     inkscape:window-height="1001"
     inkscape:window-x="-9"
     inkscape:window-y="-9"
     inkscape:window-maximized="1"
     inkscape:current-layer="Layer_1" /><g
     id="g835"
     transform="translate(30,30)"><path
       d="m 49.988,0 h 0.016 v 0.007 c 13.799,0.004 26.294,5.601 35.336,14.645 9.027,9.031 14.619,21.515 14.628,35.303 h 0.007 v 0.033 0.04 h -0.007 c -0.005,5.557 -0.917,10.905 -2.594,15.892 -0.281,0.837 -0.575,1.641 -0.877,2.409 v 0.007 c -1.446,3.66 -3.315,7.12 -5.547,10.307 l 29.082,26.139 0.018,0.016 0.157,0.146 0.011,0.011 c 1.642,1.563 2.536,3.656 2.649,5.78 0.11,2.1 -0.543,4.248 -1.979,5.971 l -0.011,0.016 -0.175,0.203 -0.035,0.035 -0.146,0.16 -0.016,0.021 c -1.565,1.642 -3.654,2.534 -5.78,2.646 -2.097,0.111 -4.247,-0.54 -5.971,-1.978 l -0.015,-0.011 -0.204,-0.175 -0.029,-0.024 -29.745,-26.734 c -0.88,0.62 -1.778,1.209 -2.687,1.765 -1.233,0.755 -2.51,1.466 -3.813,2.115 -6.699,3.342 -14.269,5.222 -22.272,5.222 v 0.007 H 49.973 V 99.967 C 36.174,99.963 23.677,94.366 14.635,85.322 5.605,76.291 0.016,63.805 0.007,50.021 H 0 V 49.988 49.972 H 0.007 C 0.011,36.173 5.608,23.676 14.652,14.634 23.683,5.608 36.167,0.016 49.955,0.007 V 0 Z m 0.016,11.21 v 0.007 H 49.988 49.955 V 11.21 C 39.269,11.217 29.583,15.56 22.571,22.569 15.56,29.578 11.213,39.274 11.21,49.973 h 0.007 v 0.016 0.033 H 11.21 c 0.007,10.686 4.347,20.367 11.359,27.381 7.009,7.012 16.705,11.359 27.403,11.361 v -0.007 h 0.016 0.033 v 0.007 c 10.686,-0.007 20.368,-4.348 27.382,-11.359 7.011,-7.009 11.358,-16.702 11.36,-27.4 h -0.006 v -0.016 -0.033 h 0.006 C 88.757,39.27 84.413,29.584 77.405,22.572 70.396,15.56 60.703,11.213 50.004,11.21 Z"
       id="path833" /></g></svg>
