<?xml version="1.0" encoding="UTF-8" standalone="no"?>
<svg
   version="1.1"
   id="Layer_1"
   x="0px"
   y="0px"
   width="122.879px"
   height="117.188px"
   viewBox="0 0 122.879 117.188"
   enable-background="new 0 0 122.879 117.188"
   xml:space="preserve"
   sodipodi:docname="star-filled.svg"
   inkscape:version="1.1.2 (b8e25be833, 2022-02-05)"
   xmlns:inkscape="http://www.inkscape.org/namespaces/inkscape"
   xmlns:sodipodi="http://sodipodi.sourceforge.net/DTD/sodipodi-0.dtd"
   xmlns="http://www.w3.org/2000/svg"
   xmlns:svg="http://www.w3.org/2000/svg"><defs
     id="defs840" /><sodipodi:namedview
     id="namedview838"
     pagecolor="#ffffff"
     bordercolor="#666666"
     borderopacity="1.0"
     inkscape:pageshadow="2"
     inkscape:pageopacity="0.0"
     inkscape:pagecheckerboard="0"
     showgrid="false"
     inkscape:zoom="3.5583847"
     inkscape:cx="48.477052"
     inkscape:cy="68.289412"
     inkscape:window-width="1920"
     inkscape:window-height="1017"
     inkscape:window-x="-8"
     inkscape:window-y="-8"
     inkscape:window-maximized="1"
     inkscape:current-layer="g835" /><g
     id="g835"
     style="fill:#000000;fill-opacity:1"><path
       sodipodi:type="star"
       style="fill:#fff530;fill-opacity:1;stroke:none;stroke-width:2;stroke-opacity:1"
       id="path1201"
       inkscape:flatsided="false"
       sodipodi:sides="5"
       sodipodi:cx="60.638451"
       sodipodi:cy="66.139969"
       sodipodi:r1="51.035507"
       sodipodi:r2="25.517754"
       sodipodi:arg1="0.93390305"
       sodipodi:arg2="1.5622216"
       inkscape:rounded="0"
       inkscape:randomized="0"
       d="M 90.989301,107.16982 60.857256,91.656784 30.99567,107.68427 36.438131,74.233195 11.967354,50.785903 45.463026,45.625042 60.200839,15.106338 75.459841,45.367821 109.03909,49.953517 84.973999,73.817003 Z"
       inkscape:transform-center-x="-0.070759221"
       inkscape:transform-center-y="-5.3100659"
       transform="matrix(1.1295063,0.01448737,-0.01417217,1.1049318,-5.6224058,-8.198563)" /><path
       d="M64.395,1.969l15.713,36.79l39.853,3.575c1.759,0.152,3.06,1.701,2.907,3.459c-0.073,0.857-0.479,1.604-1.079,2.129 l0.002,0.001L91.641,74.25l8.917,39.021c0.395,1.723-0.683,3.439-2.406,3.834c-0.883,0.203-1.763,0.018-2.466-0.441L61.441,96.191 L27.087,116.73c-1.516,0.906-3.48,0.412-4.387-1.104c-0.441-0.736-0.55-1.58-0.373-2.355h-0.003l8.918-39.021L1.092,47.924 c-1.329-1.163-1.463-3.183-0.301-4.512c0.591-0.676,1.405-1.042,2.235-1.087l39.748-3.566l15.721-36.81 c0.692-1.627,2.572-2.384,4.199-1.692C63.494,0.597,64.084,1.225,64.395,1.969L64.395,1.969z M74.967,43.023L61.441,11.351 L47.914,43.023l-0.004-0.001c-0.448,1.051-1.447,1.826-2.665,1.932l-34.306,3.078l25.819,22.545c0.949,0.74,1.438,1.988,1.152,3.24 l-7.674,33.578l29.506-17.641c0.986-0.617,2.274-0.672,3.342-0.033l29.563,17.674l-7.673-33.578l0.003-0.002 c-0.252-1.109,0.096-2.318,1.012-3.119l25.955-22.664L77.815,44.97C76.607,44.932,75.472,44.208,74.967,43.023L74.967,43.023z"
       id="path833"
       style="fill:#000000;fill-opacity:1;stroke:none;stroke-opacity:1" /></g></svg>
